<svg width="32" height="32" viewBox="0 0 32 32" fill="none" xmlns="http://www.w3.org/2000/svg">
<path d="M23.9723 3.23779C24.9762 3.23801 25.7906 4.05221 25.7906 5.05615V7.68701H27.2526C27.7678 7.68716 28.1861 8.10531 28.1862 8.62061V11.6226C28.1862 13.1748 27.1246 14.48 25.6881 14.8511C25.0694 19.1576 21.6499 22.5566 17.3336 23.145V26.0962H23.9996V28.7632H7.99963V26.0962H14.6666V23.145C10.3492 22.5572 6.92754 19.1578 6.3092 14.8501C4.87413 14.478 3.81409 13.1738 3.81409 11.6226V8.62061C3.81417 8.10522 4.23228 7.68703 4.74768 7.68701H6.20862V5.05615C6.20871 4.05207 7.02288 3.23779 8.02698 3.23779H23.9723ZM18.067 8.18115C17.527 8.18124 17.0526 8.50691 16.7496 9.14404L15.9996 10.7212L15.2496 9.14404C14.9468 8.50711 14.4719 8.18164 13.9323 8.18115C13.4318 8.18115 12.8785 8.46786 12.6412 9.06592L10.7965 13.6577C10.3225 14.8284 11.1917 16.181 12.5485 16.1812C13.2859 16.1808 14.0113 15.8035 14.3932 14.8804L15.9996 10.9653L17.6061 14.8804C17.9881 15.8034 18.7123 16.181 19.4498 16.1812C20.8064 16.1808 21.6758 14.8283 21.2018 13.6577L19.358 9.06592C19.121 8.46787 18.5674 8.18147 18.067 8.18115Z" fill="url(#paint0_linear_ai_rank_light)"/>
<defs>
<linearGradient id="paint0_linear_ai_rank_light" x1="15.9996" y1="3.23779" x2="15.9996" y2="28.7632" gradientUnits="userSpaceOnUse">
<stop stop-color="#0D0E0F"/>
<stop offset="1" stop-color="#0D0E0F" stop-opacity="0.75"/>
</linearGradient>
</defs>
</svg>
