<svg width="32" height="32" viewBox="0 0 32 32" fill="none" xmlns="http://www.w3.org/2000/svg">
<path d="M21.1572 24.9902H10.8447V22.9902H21.1572V24.9902ZM23.4248 7C24.5293 7 25.4247 7.89549 25.4248 9V19C25.4248 20.1046 24.5294 21 23.4248 21H8.4248C7.32024 21 6.4248 20.1046 6.4248 19V9C6.42487 7.89549 7.32028 7 8.4248 7H23.4248ZM17.0957 13.8516L15.3037 12.083L14.6045 11.3936L13.9023 12.0791L9.99512 15.8965L10.6943 16.6123L11.3936 17.3271L14.5977 14.1953L16.3799 15.9541L17.0674 16.6338L17.7695 15.9688L21.8428 12.1143L21.1562 11.3877L20.4688 10.6611L17.0957 13.8516Z" fill="url(#paint0_linear_2433_28937)"/>
<defs>
<linearGradient id="paint0_linear_2433_28937" x1="15.9248" y1="7" x2="15.9248" y2="25.8193" gradientUnits="userSpaceOnUse">
<stop stop-color="#0D0E0F"/>
<stop offset="1" stop-color="#0D0E0F" stop-opacity="0.75"/>
</linearGradient>
</defs>
</svg>
