<svg width="32" height="32" viewBox="0 0 32 32" fill="none" xmlns="http://www.w3.org/2000/svg">
<path d="M22.8757 27.9873H9.12671V25.3213H22.8757V27.9873ZM25.9001 4C27.3728 4.00018 28.5662 5.19434 28.5662 6.66699V20C28.5662 21.4727 27.3728 22.6668 25.9001 22.667H5.90015C4.42739 22.667 3.23315 21.4728 3.23315 20V6.66699C3.23315 5.19423 4.42739 4 5.90015 4H25.9001ZM17.4617 13.1357L15.072 10.7773L14.1394 9.8584L13.2029 10.7725L7.9939 15.8623L9.85718 17.7705L14.1306 13.5947L16.5066 15.9395L17.4236 16.8447L18.3591 15.959L23.7908 10.8193L22.8748 9.85059L21.9578 8.88184L17.4617 13.1357Z" fill="url(#paint0_linear_118_6023)"/>
<defs>
<linearGradient id="paint0_linear_118_6023" x1="15.8997" y1="4" x2="15.8997" y2="29.0927" gradientUnits="userSpaceOnUse">
<stop stop-color="#F2F4F6"/>
<stop offset="1" stop-color="#F2F4F6" stop-opacity="0.75"/>
</linearGradient>
</defs>
</svg>
