<svg width="32" height="32" viewBox="0 0 32 32" fill="none" xmlns="http://www.w3.org/2000/svg">
<path d="M22.8757 27.9873H9.12665V25.3213H22.8757V27.9873ZM25.9001 4C27.3727 4.00018 28.5661 5.19434 28.5661 6.66699V20C28.5661 21.4727 27.3727 22.6668 25.9001 22.667H5.90009C4.42733 22.667 3.23309 21.4728 3.23309 20V6.66699C3.23309 5.19423 4.42733 4 5.90009 4H25.9001ZM17.4616 13.1357L15.072 10.7773L14.1393 9.8584L13.2028 10.7725L7.99384 15.8623L9.85712 17.7705L14.1306 13.5947L16.5065 15.9395L17.4235 16.8447L18.3591 15.959L23.7907 10.8193L22.8747 9.85059L21.9577 8.88184L17.4616 13.1357Z" fill="url(#paint0_linear_118_5728)"/>
<defs>
<linearGradient id="paint0_linear_118_5728" x1="15.8996" y1="4" x2="15.8996" y2="29.0927" gradientUnits="userSpaceOnUse">
<stop stop-color="#0D0E0F"/>
<stop offset="1" stop-color="#0D0E0F" stop-opacity="0.75"/>
</linearGradient>
</defs>
</svg>
