<svg width="22" height="22" viewBox="0 0 22 22" fill="none" xmlns="http://www.w3.org/2000/svg">
<path d="M11.3248 2.86599C11.3248 2.38772 11.7277 2 12.2248 2C12.7218 2 13.1248 2.38772 13.1248 2.86599V14.5025H11.3248V2.86599Z" fill="#0D0E0F"/>
<path d="M6.07918 10.5886C6.33404 10.1766 6.8841 10.0435 7.30778 10.2913L12.1389 13.1173L17.1421 10.0009C17.5585 9.74152 18.1122 9.85949 18.3788 10.2643C18.6455 10.6692 18.5242 11.2076 18.1079 11.467L12.9291 14.6927C12.4633 14.9829 11.8686 14.991 11.3946 14.7137L6.38485 11.7833C5.96117 11.5355 5.82432 11.0006 6.07918 10.5886Z" fill="#0D0E0F"/>
<path d="M3 19.134C3 18.6557 3.40294 18.268 3.9 18.268H20.1C20.5971 18.268 21 18.6557 21 19.134C21 19.6123 20.5971 20 20.1 20H3.9C3.40294 20 3 19.6123 3 19.134Z" fill="#0D0E0F"/>
</svg>
