<svg width="20" height="20" viewBox="0 0 20 20" fill="none" xmlns="http://www.w3.org/2000/svg">
<path d="M10.0003 18.3333C5.39783 18.3333 1.66699 14.6025 1.66699 9.99996C1.66699 5.39746 5.39783 1.66663 10.0003 1.66663C14.6028 1.66663 18.3337 5.39746 18.3337 9.99996C18.3337 14.6025 14.6028 18.3333 10.0003 18.3333ZM8.09199 16.3891C7.26984 14.6452 6.79355 12.7585 6.68949 10.8333H3.38533C3.54748 12.1157 4.07859 13.3234 4.91413 14.3097C5.74967 15.296 6.85367 16.0184 8.09199 16.3891V16.3891ZM8.35866 10.8333C8.48449 12.8658 9.06533 14.775 10.0003 16.46C10.9606 14.7304 11.5215 12.8079 11.642 10.8333H8.35866V10.8333ZM16.6153 10.8333H13.3112C13.2071 12.7585 12.7308 14.6452 11.9087 16.3891C13.147 16.0184 14.251 15.296 15.0865 14.3097C15.9221 13.3234 16.4532 12.1157 16.6153 10.8333V10.8333ZM3.38533 9.16663H6.68949C6.79355 7.24145 7.26984 5.3547 8.09199 3.61079C6.85367 3.98153 5.74967 4.70392 4.91413 5.69021C4.07859 6.67649 3.54748 7.88421 3.38533 9.16663V9.16663ZM8.35949 9.16663H11.6412C11.521 7.19212 10.9603 5.26957 10.0003 3.53996C9.04006 5.2695 8.47912 7.19206 8.35866 9.16663H8.35949ZM11.9087 3.61079C12.7308 5.3547 13.2071 7.24145 13.3112 9.16663H16.6153C16.4532 7.88421 15.9221 6.67649 15.0865 5.69021C14.251 4.70392 13.147 3.98153 11.9087 3.61079V3.61079Z" fill="#0D0E0F"/>
</svg>
