<svg width="24" height="24" viewBox="0 0 24 24" fill="none" xmlns="http://www.w3.org/2000/svg">
<path d="M19.7872 14.1264C22.5209 11.3928 22.5209 6.96068 19.7872 4.22701C17.0536 1.49334 12.6215 1.49334 9.88781 4.22701L8.4591 5.65572L9.51964 6.71627L10.9484 5.28756C13.0962 3.13967 16.5788 3.13968 18.7267 5.28756C20.8746 7.43544 20.8746 10.918 18.7267 13.0659L17.298 14.4946L18.3585 15.5551L19.7872 14.1264Z" fill="#0D0E0F"/>
<path d="M16.1056 9.01314L15.0441 7.95162L7.96496 15.0317L9.0255 16.0922L16.1056 9.01314Z" fill="#0D0E0F"/>
<path d="M4.23351 19.7807C6.96718 22.5144 11.4002 22.5144 14.1339 19.7807L15.5441 18.3696L14.4835 17.309L13.0724 18.7192C10.9245 20.8671 7.44292 20.8671 5.29503 18.7192C3.14715 16.5713 3.14715 13.0897 5.29503 10.9419L6.70519 9.53072L5.64464 8.47018L4.23351 9.88033C1.49984 12.614 1.49984 17.0471 4.23351 19.7807Z" fill="#0D0E0F"/>
</svg>
