<svg width="32" height="32" viewBox="0 0 32 32" fill="none" xmlns="http://www.w3.org/2000/svg">
<path d="M15.6553 6.21362C15.8788 6.14007 16.1203 6.13999 16.3438 6.21362L24.043 8.75073C24.494 8.89933 24.7988 9.32083 24.7988 9.79565V18.5261C24.7988 20.6033 23.5819 22.4913 21.6865 23.3425L16.4502 25.698C16.1633 25.8269 15.8347 25.827 15.5479 25.698L10.3125 23.3425C8.41686 22.4914 7.19922 20.6035 7.19922 18.5261V9.79565C7.19927 9.32083 7.50409 8.89933 7.95508 8.75073L15.6553 6.21362ZM15.1758 17.1746L12.7168 14.8103L11.3301 16.2517L14.5801 19.3767L15.3711 20.1375L16.0547 19.28L20.9922 13.0925L19.4297 11.8445L15.1758 17.1746Z" fill="url(#paint0_linear_2433_29077)"/>
<defs>
<linearGradient id="paint0_linear_2433_29077" x1="15.999" y1="6.15894" x2="15.999" y2="25.7943" gradientUnits="userSpaceOnUse">
<stop stop-color="#0D0E0F"/>
<stop offset="1" stop-color="#0D0E0F" stop-opacity="0.75"/>
</linearGradient>
</defs>
</svg>
