<svg width="32" height="32" viewBox="0 0 32 32" fill="none" xmlns="http://www.w3.org/2000/svg">
<path d="M15.6553 6.21399C15.8788 6.14039 16.1202 6.14035 16.3438 6.21399L24.043 8.7511C24.494 8.89971 24.7988 9.32115 24.7988 9.79602V18.5265C24.7988 20.6037 23.582 22.4917 21.6865 23.3429L16.4502 25.6974C16.1633 25.8264 15.8348 25.8264 15.5479 25.6974L10.3125 23.3429C8.41686 22.4917 7.19922 20.6038 7.19922 18.5265V9.79602C7.19922 9.32115 7.50405 8.89971 7.95508 8.7511L15.6553 6.21399ZM15.1758 17.1749L12.7168 14.8107L11.3301 16.2521L14.5801 19.3771L15.3711 20.1378L16.0547 19.2804L20.9922 13.0929L19.4297 11.8448L15.1758 17.1749Z" fill="url(#paint0_linear_2433_27498)"/>
<defs>
<linearGradient id="paint0_linear_2433_27498" x1="15.999" y1="6.15833" x2="15.999" y2="25.7946" gradientUnits="userSpaceOnUse">
<stop stop-color="#F2F4F6"/>
<stop offset="1" stop-color="#F2F4F6" stop-opacity="0.75"/>
</linearGradient>
</defs>
</svg>
