<svg width="32" height="32" viewBox="0 0 32 32" fill="none" xmlns="http://www.w3.org/2000/svg">
<path d="M15.54 2.95109C15.8381 2.8529 16.1599 2.85288 16.458 2.95109L26.7246 6.33391C27.326 6.53205 27.7324 7.09429 27.7324 7.72746V19.3681C27.7324 22.1379 26.1086 24.6551 23.5811 25.79L16.6006 28.9296C16.218 29.1016 15.78 29.1016 15.3975 28.9296L8.41602 25.79C5.88862 24.655 4.26562 22.1378 4.26562 19.3681V7.72746C4.26562 7.09429 4.67207 6.53205 5.27344 6.33391L15.54 2.95109ZM14.9004 17.5663L11.6221 14.414L10.6982 15.3749L9.77441 16.3368L14.1074 20.5029L15.1611 21.5165L16.0742 20.3739L22.6572 12.1239L21.6152 11.2919L20.5723 10.4599L14.9004 17.5663Z" fill="url(#paint0_linear_118_5979)"/>
<defs>
<linearGradient id="paint0_linear_118_5979" x1="15.999" y1="2.87744" x2="15.999" y2="29.0586" gradientUnits="userSpaceOnUse">
<stop stop-color="#F2F4F6"/>
<stop offset="1" stop-color="#F2F4F6" stop-opacity="0.75"/>
</linearGradient>
</defs>
</svg>
