<svg width="32" height="32" viewBox="0 0 32 32" fill="none" xmlns="http://www.w3.org/2000/svg">
<path d="M15.54 2.95107C15.8381 2.85291 16.16 2.85289 16.458 2.95107L26.7246 6.33388C27.326 6.53203 27.7324 7.09427 27.7324 7.72744V19.3681C27.7324 22.1378 26.1086 24.6551 23.5811 25.7899L16.6006 28.9296C16.218 29.1017 15.7801 29.1016 15.3975 28.9296L8.41602 25.7899C5.88868 24.655 4.26562 22.1377 4.26562 19.3681V7.72744C4.26562 7.09427 4.67207 6.53203 5.27344 6.33388L15.54 2.95107ZM14.9004 17.5663L11.6221 14.414L10.6982 15.3749L9.77441 16.3368L14.1074 20.5028L15.1611 21.5165L16.0742 20.3739L22.6572 12.1239L21.6152 11.2919L20.5723 10.4599L14.9004 17.5663Z" fill="url(#paint0_linear_118_5779)"/>
<defs>
<linearGradient id="paint0_linear_118_5779" x1="15.9991" y1="2.87744" x2="15.9991" y2="29.0584" gradientUnits="userSpaceOnUse">
<stop stop-color="#0D0E0F"/>
<stop offset="1" stop-color="#0D0E0F" stop-opacity="0.75"/>
</linearGradient>
</defs>
</svg>
