<svg width="32" height="32" viewBox="0 0 32 32" fill="none" xmlns="http://www.w3.org/2000/svg">
<path d="M7.33331 12C7.7015 12 8.00031 12.2988 8.00031 12.667V28H4.67218C4.30399 28 4.00519 27.7012 4.00519 27.333V12.667C4.00519 12.2988 4.30399 12 4.67218 12H7.33331ZM25.3362 4C26.8089 4.00018 28.0023 5.19434 28.0023 6.66699V25.333C28.0023 26.8057 26.8089 27.9998 25.3362 28H10.6693V6.66699C10.6693 5.19424 11.8635 4.00001 13.3362 4H25.3362ZM14.6693 20H24.0023V17.333H14.6693V20ZM14.6693 14.667H24.0023V12H14.6693V14.667Z" fill="url(#paint0_linear_118_5737)"/>
<defs>
<linearGradient id="paint0_linear_118_5737" x1="16.0037" y1="4" x2="16.0037" y2="28" gradientUnits="userSpaceOnUse">
<stop stop-color="#0D0E0F"/>
<stop offset="1" stop-color="#0D0E0F" stop-opacity="0.75"/>
</linearGradient>
</defs>
</svg>
