<svg width="20" height="20" viewBox="0 0 20 20" fill="none" xmlns="http://www.w3.org/2000/svg">
<path fill-rule="evenodd" clip-rule="evenodd" d="M7.65975 3.77598C7.00976 4.01986 6.40757 4.36257 5.87156 4.78617C5.92916 5.02184 5.95963 5.26774 5.95963 5.52007C5.95963 7.00955 4.90349 8.25235 3.49923 8.54045C3.39158 9.01573 3.33464 9.51083 3.33464 10.0201C3.33464 10.2588 3.34715 10.4944 3.37153 10.7263C4.83897 10.9632 5.95963 12.2358 5.95963 13.7701C5.95963 14.2397 5.85421 14.6857 5.6659 15.0847C6.19299 15.5364 6.791 15.9069 7.44056 16.1774C7.99368 15.3543 8.93345 14.8117 10.0013 14.8117C11.0692 14.8117 12.0089 15.3543 12.562 16.1774C13.2116 15.9069 13.8096 15.5364 14.3367 15.0847C14.1484 14.6857 14.043 14.2397 14.043 13.7701C14.043 12.2358 15.1636 10.9632 16.6311 10.7263C16.6554 10.4944 16.668 10.2588 16.668 10.0201C16.668 9.51083 16.611 9.01573 16.5034 8.54045C15.0991 8.25235 14.043 7.00954 14.043 5.52007C14.043 5.26774 14.0734 5.02184 14.131 4.78617C13.595 4.36258 12.9928 4.01986 12.3429 3.77598C11.778 4.43464 10.9389 4.85341 10.0013 4.85341C9.06365 4.85341 8.22455 4.43464 7.65975 3.77598ZM7.70069 2.00859C8.13163 1.88505 8.56129 2.09169 8.75816 2.45029C9.00011 2.89101 9.46678 3.18674 10.0013 3.18674C10.5358 3.18674 11.0025 2.89101 11.2444 2.45029C11.4413 2.09169 11.871 1.88505 12.3019 2.00859C13.5563 2.3682 14.6885 3.01383 15.6239 3.86934C15.9312 4.15037 15.9968 4.58353 15.8378 4.93C15.7558 5.10859 15.7096 5.30781 15.7096 5.52007C15.7096 6.30247 16.3439 6.93674 17.1263 6.93674C17.501 6.93674 17.8471 7.17788 17.9634 7.55363C18.2049 8.33409 18.3346 9.1627 18.3346 10.0201C18.3346 10.5652 18.2822 11.0989 18.1818 11.6161C18.0895 12.0915 17.6589 12.3849 17.2203 12.3564C17.1894 12.3544 17.1581 12.3534 17.1263 12.3534C16.3439 12.3534 15.7096 12.9877 15.7096 13.7701C15.7096 14.1018 15.8226 14.4048 16.0128 14.646C16.285 14.9913 16.2874 15.5123 15.9482 15.8578C14.9949 16.8288 13.8046 17.5681 12.4696 17.9816C11.9769 18.1342 11.4925 17.8523 11.3346 17.4145C11.1374 16.8674 10.6137 16.4784 10.0013 16.4784C9.38887 16.4784 8.86519 16.8674 8.66797 17.4145C8.51014 17.8523 8.02573 18.1342 7.533 17.9816C6.198 17.5681 5.00771 16.8288 4.05444 15.8578C3.71521 15.5123 3.71763 14.9912 3.98982 14.646C4.17999 14.4048 4.29297 14.1018 4.29297 13.7701C4.29297 12.9877 3.65871 12.3534 2.8763 12.3534C2.84457 12.3534 2.81322 12.3544 2.78229 12.3564C2.34372 12.3849 1.91308 12.0915 1.8208 11.6161C1.72042 11.0989 1.66797 10.5652 1.66797 10.0201C1.66797 9.16271 1.79772 8.3341 2.03924 7.55363C2.15552 7.17787 2.50156 6.93674 2.8763 6.93674C3.65871 6.93674 4.29297 6.30247 4.29297 5.52007C4.29297 5.30781 4.24683 5.10859 4.16484 4.93C4.00579 4.58353 4.07144 4.15037 4.37871 3.86934C5.31408 3.01383 6.44633 2.3682 7.70069 2.00859ZM6.54297 10.02C6.54297 8.11004 8.09131 6.56169 10.0013 6.56169C11.9113 6.56169 13.4596 8.11004 13.4596 10.02C13.4596 11.93 11.9113 13.4784 10.0013 13.4784C8.09131 13.4784 6.54297 11.93 6.54297 10.02ZM10.0013 8.22836C9.01179 8.22836 8.20964 9.03051 8.20964 10.02C8.20964 11.0095 9.01179 11.8117 10.0013 11.8117C10.9908 11.8117 11.793 11.0095 11.793 10.02C11.793 9.03051 10.9908 8.22836 10.0013 8.22836Z" fill="#0D0E0F"/>
</svg>
