<svg width="20" height="20" viewBox="0 0 20 20" fill="none" xmlns="http://www.w3.org/2000/svg">
<path fill-rule="evenodd" clip-rule="evenodd" d="M10 6.66669C10.9205 6.66669 11.6667 5.9205 11.6667 5.00002C11.6667 4.07955 10.9205 3.33335 10 3.33335C9.0795 3.33335 8.33333 4.07955 8.33333 5.00002C8.33333 5.9205 9.0795 6.66669 10 6.66669ZM10 8.33335C11.8409 8.33335 13.3333 6.84097 13.3333 5.00002C13.3333 3.15907 11.8409 1.66669 10 1.66669C8.15905 1.66669 6.66667 3.15907 6.66667 5.00002C6.66667 6.84097 8.15905 8.33335 10 8.33335ZM6.66667 11.6667C5.28596 11.6667 4.16667 12.7859 4.16667 14.1667V15.8334H15.8333V14.1667C15.8333 12.7859 14.7141 11.6667 13.3333 11.6667H6.66667ZM2.5 14.1667C2.5 11.8655 4.36548 10 6.66667 10H13.3333C15.6345 10 17.5 11.8655 17.5 14.1667V15.8334C17.5 16.7539 16.7538 17.5 15.8333 17.5H4.16667C3.24619 17.5 2.5 16.7539 2.5 15.8334V14.1667Z" fill="#0D0E0F"/>
</svg>
