<svg width="32" height="32" viewBox="0 0 32 32" fill="none" xmlns="http://www.w3.org/2000/svg">
<path fill-rule="evenodd" clip-rule="evenodd" d="M21.9795 6.42773C22.7324 6.42793 23.3428 7.03899 23.3428 7.79199V9.76465H24.4395C24.8258 9.76483 25.1385 10.0785 25.1387 10.4648V12.7168C25.1387 13.8803 24.343 14.855 23.2666 15.1338C22.8043 18.3659 20.2388 20.917 17 21.3584V23.5723H22V25.5723H10V23.5723H15V21.3584C11.7609 20.9171 9.19381 18.3661 8.73145 15.1338C7.65603 14.8543 6.86133 13.8797 6.86133 12.7168V10.4648C6.86149 10.0785 7.1742 9.76483 7.56055 9.76465H8.65625V7.79199C8.65625 7.03899 9.26658 6.42793 10.0195 6.42773H21.9795ZM17.5498 10.1406C17.1451 10.1409 16.7896 10.3848 16.5625 10.8623L15.999 12.0449L15.4375 10.8623C15.2102 10.3845 14.8542 10.1406 14.4492 10.1406C14.0741 10.1409 13.6593 10.3555 13.4814 10.8037L12.0977 14.248C11.7426 15.1258 12.395 16.1403 13.4121 16.1406C13.9652 16.1406 14.5083 15.8572 14.7949 15.165L15.999 12.2285L17.2041 15.165C17.4906 15.8574 18.0347 16.1405 18.5879 16.1406C19.6053 16.1405 20.2576 15.126 19.9023 14.248L18.5186 10.8037C18.3406 10.3551 17.9252 10.1406 17.5498 10.1406Z" fill="url(#paint0_linear_6068_804)"/>
<defs>
<linearGradient id="paint0_linear_6068_804" x1="16" y1="6.42773" x2="16" y2="25.5723" gradientUnits="userSpaceOnUse">
<stop stop-color="#0D0E0F"/>
<stop offset="1" stop-color="#0D0E0F" stop-opacity="0.75"/>
</linearGradient>
</defs>
</svg>
