<svg width="32" height="32" viewBox="0 0 32 32" fill="none" xmlns="http://www.w3.org/2000/svg">
<path fill-rule="evenodd" clip-rule="evenodd" d="M21.9795 6.42871C22.7324 6.4289 23.3428 7.039 23.3428 7.79199V9.76562H24.4395C24.8259 9.76566 25.1395 10.0784 25.1396 10.4648V12.7168C25.1396 13.8809 24.3428 14.8555 23.2656 15.1338C22.8032 18.3658 20.2387 20.917 17 21.3584V23.5723H22V25.5723H10V23.5723H15V21.3584C11.7609 20.9171 9.19381 18.3661 8.73145 15.1338C7.65603 14.8543 6.86133 13.8797 6.86133 12.7168V10.4648C6.86154 10.0785 7.17423 9.7658 7.56055 9.76562H8.65625V7.79199C8.65625 7.039 9.26658 6.4289 10.0195 6.42871H21.9795ZM17.5498 10.1357C17.145 10.1359 16.7897 10.3799 16.5625 10.8574L15.999 12.04L15.4375 10.8574C15.2104 10.3796 14.8541 10.136 14.4492 10.1357C14.0739 10.1357 13.6584 10.3503 13.4805 10.7988L12.0977 14.2432C11.742 15.1211 12.3936 16.1355 13.4111 16.1357C13.9643 16.1356 14.5084 15.8527 14.7949 15.1602L15.999 12.2246L17.2041 15.1602C17.4906 15.8528 18.0346 16.1357 18.5879 16.1357C19.6053 16.1355 20.2578 15.1211 19.9023 14.2432L18.5186 10.7988C18.3407 10.3503 17.9251 10.1358 17.5498 10.1357Z" fill="url(#paint0_linear_6068_780)"/>
<defs>
<linearGradient id="paint0_linear_6068_780" x1="15.1913" y1="6.70808" x2="15.6385" y2="25.5733" gradientUnits="userSpaceOnUse">
<stop stop-color="#F2F4F6"/>
<stop offset="1" stop-color="#F2F4F6" stop-opacity="0.75"/>
</linearGradient>
</defs>
</svg>
